<svg width="30" height="30" viewBox="0 0 30 30" fill="none" xmlns="http://www.w3.org/2000/svg">
<rect width="30" height="30" fill="white"/>
<path fill-rule="evenodd" clip-rule="evenodd" d="M13.6235 3.62348C14.9831 2.26384 16.8272 1.5 18.75 1.5H22.5C23.0523 1.5 23.5 1.94772 23.5 2.5V7.5C23.5 8.05228 23.0523 8.5 22.5 8.5H18.75C18.6837 8.5 18.6201 8.52634 18.5732 8.57322C18.5263 8.62011 18.5 8.6837 18.5 8.75V11.5H22.5C22.8079 11.5 23.0987 11.6419 23.2882 11.8846C23.4777 12.1273 23.5448 12.4438 23.4701 12.7425L22.2201 17.7425C22.1089 18.1877 21.7089 18.5 21.25 18.5H18.5V27.5C18.5 28.0523 18.0523 28.5 17.5 28.5H12.5C11.9477 28.5 11.5 28.0523 11.5 27.5V18.5H8.75C8.19772 18.5 7.75 18.0523 7.75 17.5V12.5C7.75 11.9477 8.19772 11.5 8.75 11.5H11.5V8.75C11.5 6.82718 12.2638 4.98311 13.6235 3.62348ZM18.75 3.5C17.3576 3.5 16.0223 4.05312 15.0377 5.03769C14.0531 6.02226 13.5 7.35761 13.5 8.75V12.5C13.5 13.0523 13.0523 13.5 12.5 13.5H9.75V16.5H12.5C13.0523 16.5 13.5 16.9477 13.5 17.5V26.5H16.5V17.5C16.5 16.9477 16.9477 16.5 17.5 16.5H20.4692L21.2192 13.5H17.5C16.9477 13.5 16.5 13.0523 16.5 12.5V8.75C16.5 8.15326 16.7371 7.58097 17.159 7.15901C17.581 6.73705 18.1533 6.5 18.75 6.5H21.5V3.5H18.75Z" fill="black"/>
</svg>
