<svg width="21" height="21" viewBox="0 0 21 21" fill="none" xmlns="http://www.w3.org/2000/svg">
<path fill-rule="evenodd" clip-rule="evenodd" d="M12.6875 2.625C12.4445 2.625 12.25 2.8195 12.25 3.0625V7.4375C12.25 7.6805 12.4445 7.875 12.6875 7.875C12.9305 7.875 13.125 7.6805 13.125 7.4375V3.0625C13.125 2.8195 12.9305 2.625 12.6875 2.625ZM10.5 3.0625C10.5 1.853 11.478 0.875 12.6875 0.875C13.897 0.875 14.875 1.853 14.875 3.0625V7.4375C14.875 8.647 13.897 9.625 12.6875 9.625C11.478 9.625 10.5 8.647 10.5 7.4375V3.0625Z" fill="#BCBABA"/>
<path fill-rule="evenodd" clip-rule="evenodd" d="M17.9375 7C17.6945 7 17.5 7.1945 17.5 7.4375V7.875H17.9375C18.1805 7.875 18.375 7.6805 18.375 7.4375C18.375 7.1945 18.1805 7 17.9375 7ZM15.75 7.4375C15.75 6.228 16.728 5.25 17.9375 5.25C19.147 5.25 20.125 6.228 20.125 7.4375C20.125 8.647 19.147 9.625 17.9375 9.625H16.625C16.1418 9.625 15.75 9.23325 15.75 8.75V7.4375Z" fill="#BCBABA"/>
<path fill-rule="evenodd" clip-rule="evenodd" d="M8.3125 13.125C8.0695 13.125 7.875 13.3195 7.875 13.5625V17.9375C7.875 18.1805 8.0695 18.375 8.3125 18.375C8.5555 18.375 8.75 18.1805 8.75 17.9375V13.5625C8.75 13.3195 8.5555 13.125 8.3125 13.125ZM6.125 13.5625C6.125 12.353 7.103 11.375 8.3125 11.375C9.522 11.375 10.5 12.353 10.5 13.5625V17.9375C10.5 19.147 9.522 20.125 8.3125 20.125C7.103 20.125 6.125 19.147 6.125 17.9375V13.5625Z" fill="#BCBABA"/>
<path fill-rule="evenodd" clip-rule="evenodd" d="M3.0625 13.125C2.8195 13.125 2.625 13.3195 2.625 13.5625C2.625 13.8055 2.8195 14 3.0625 14C3.3055 14 3.5 13.8055 3.5 13.5625V13.125H3.0625ZM0.875 13.5625C0.875 12.353 1.853 11.375 3.0625 11.375H4.375C4.85825 11.375 5.25 11.7668 5.25 12.25V13.5625C5.25 14.772 4.272 15.75 3.0625 15.75C1.853 15.75 0.875 14.772 0.875 13.5625Z" fill="#BCBABA"/>
<path fill-rule="evenodd" clip-rule="evenodd" d="M13.5625 12.25C13.3195 12.25 13.125 12.4445 13.125 12.6875C13.125 12.9305 13.3195 13.125 13.5625 13.125H17.9375C18.1805 13.125 18.375 12.9305 18.375 12.6875C18.375 12.4445 18.1805 12.25 17.9375 12.25H13.5625ZM11.375 12.6875C11.375 11.478 12.353 10.5 13.5625 10.5H17.9375C19.147 10.5 20.125 11.478 20.125 12.6875C20.125 13.897 19.147 14.875 17.9375 14.875H13.5625C12.353 14.875 11.375 13.897 11.375 12.6875Z" fill="#BCBABA"/>
<path fill-rule="evenodd" clip-rule="evenodd" d="M11.375 16.625C11.375 16.1418 11.7668 15.75 12.25 15.75H13.5625C14.772 15.75 15.75 16.728 15.75 17.9375C15.75 19.147 14.772 20.125 13.5625 20.125C12.353 20.125 11.375 19.147 11.375 17.9375V16.625ZM13.125 17.5V17.9375C13.125 18.1805 13.3195 18.375 13.5625 18.375C13.8055 18.375 14 18.1805 14 17.9375C14 17.6945 13.8055 17.5 13.5625 17.5H13.125Z" fill="#BCBABA"/>
<path fill-rule="evenodd" clip-rule="evenodd" d="M0.875 8.3125C0.875 7.103 1.853 6.125 3.0625 6.125H7.4375C8.647 6.125 9.625 7.103 9.625 8.3125C9.625 9.522 8.647 10.5 7.4375 10.5H3.0625C1.853 10.5 0.875 9.522 0.875 8.3125ZM3.0625 7.875C2.8195 7.875 2.625 8.0695 2.625 8.3125C2.625 8.5555 2.8195 8.75 3.0625 8.75H7.4375C7.6805 8.75 7.875 8.5555 7.875 8.3125C7.875 8.0695 7.6805 7.875 7.4375 7.875H3.0625Z" fill="#BCBABA"/>
<path fill-rule="evenodd" clip-rule="evenodd" d="M5.25 3.0625C5.25 1.853 6.228 0.875 7.4375 0.875C8.647 0.875 9.625 1.853 9.625 3.0625V4.375C9.625 4.85825 9.23325 5.25 8.75 5.25H7.4375C6.228 5.25 5.25 4.272 5.25 3.0625ZM7.4375 2.625C7.1945 2.625 7 2.8195 7 3.0625C7 3.3055 7.1945 3.5 7.4375 3.5H7.875V3.0625C7.875 2.8195 7.6805 2.625 7.4375 2.625Z" fill="#BCBABA"/>
</svg>
