<svg width="91" height="30" viewBox="0 0 91 30" fill="none" xmlns="http://www.w3.org/2000/svg">
<rect width="30" height="30" fill="white"/>
<path d="M26.6875 13.875H15.225V17.2875H23.3625C22.95 22.05 18.9875 24.0875 15.2375 24.0875C10.45 24.0875 6.24998 20.3125 6.24998 15C6.24998 9.875 10.25 5.9125 15.25 5.9125C19.1125 5.9125 21.375 8.375 21.375 8.375L23.75 5.9C23.75 5.9 20.7 2.5 15.125 2.5C8.02498 2.5 2.53748 8.5 2.53748 15C2.53748 21.3125 7.69998 27.5 15.3125 27.5C22 27.5 26.875 22.9125 26.875 16.1375C26.875 14.7 26.6875 13.875 26.6875 13.875Z" fill="black"/>
<path d="M50.162 18.844C50.162 19.276 49.82 19.672 49.136 20.032C48.452 20.38 47.606 20.554 46.598 20.554C44.906 20.554 43.55 19.99 42.53 18.862C41.51 17.722 41 16.216 41 14.344C41 12.46 41.51 10.978 42.53 9.898C43.55 8.806 44.93 8.26 46.67 8.26C47.606 8.26 48.392 8.452 49.028 8.836C49.664 9.208 49.982 9.67 49.982 10.222C49.982 10.714 49.64 11.014 48.956 11.122C48.728 10.534 48.368 10.096 47.876 9.808C47.384 9.508 46.862 9.358 46.31 9.358C45.182 9.358 44.258 9.808 43.538 10.708C42.83 11.596 42.476 12.76 42.476 14.2C42.476 15.628 42.836 16.864 43.556 17.908C44.276 18.94 45.278 19.456 46.562 19.456C47.522 19.456 48.296 19.168 48.884 18.592C48.86 17.092 48.818 15.88 48.758 14.956C48.962 14.92 49.178 14.902 49.406 14.902C49.994 14.902 50.288 15.13 50.288 15.586L50.234 16.738C50.186 17.506 50.162 18.208 50.162 18.844Z" fill="white"/>
<path d="M59.8322 16.198C59.8322 17.518 59.4722 18.574 58.7522 19.366C58.0322 20.158 57.0842 20.554 55.9082 20.554C54.7442 20.554 53.8022 20.158 53.0822 19.366C52.3622 18.574 52.0022 17.518 52.0022 16.198C52.0022 14.878 52.3622 13.822 53.0822 13.03C53.8022 12.226 54.7442 11.824 55.9082 11.824C57.0842 11.824 58.0322 12.226 58.7522 13.03C59.4722 13.822 59.8322 14.878 59.8322 16.198ZM55.9082 19.546C56.7482 19.546 57.4022 19.264 57.8702 18.7C58.3382 18.136 58.5722 17.362 58.5722 16.378C58.5722 15.394 58.3322 14.56 57.8522 13.876C57.3722 13.18 56.7182 12.832 55.8902 12.832C55.0622 12.832 54.4142 13.12 53.9462 13.696C53.4902 14.26 53.2622 15.034 53.2622 16.018C53.2622 17.002 53.4962 17.836 53.9642 18.52C54.4322 19.204 55.0802 19.546 55.9082 19.546Z" fill="white"/>
<path d="M69.2892 16.198C69.2892 17.518 68.9292 18.574 68.2092 19.366C67.4893 20.158 66.5413 20.554 65.3652 20.554C64.2013 20.554 63.2592 20.158 62.5392 19.366C61.8193 18.574 61.4592 17.518 61.4592 16.198C61.4592 14.878 61.8193 13.822 62.5392 13.03C63.2592 12.226 64.2013 11.824 65.3652 11.824C66.5413 11.824 67.4893 12.226 68.2092 13.03C68.9292 13.822 69.2892 14.878 69.2892 16.198ZM65.3652 19.546C66.2052 19.546 66.8592 19.264 67.3272 18.7C67.7952 18.136 68.0293 17.362 68.0293 16.378C68.0293 15.394 67.7892 14.56 67.3092 13.876C66.8293 13.18 66.1753 12.832 65.3472 12.832C64.5192 12.832 63.8713 13.12 63.4032 13.696C62.9473 14.26 62.7192 15.034 62.7192 16.018C62.7192 17.002 62.9532 17.836 63.4212 18.52C63.8892 19.204 64.5372 19.546 65.3652 19.546Z" fill="white"/>
<path d="M72.6623 21.04C72.2183 21.7 71.9963 22.264 71.9963 22.732C71.9963 23.512 72.7223 23.902 74.1743 23.902C75.2303 23.902 76.0343 23.734 76.5863 23.398C77.1383 23.062 77.4143 22.672 77.4143 22.228C77.4143 21.784 77.3003 21.49 77.0723 21.346C76.8443 21.202 76.4903 21.13 76.0103 21.13H74.1563C73.4723 21.13 72.9743 21.1 72.6623 21.04ZM74.3723 17.242C75.1043 17.242 75.6383 17.074 75.9743 16.738C76.3103 16.402 76.4783 15.898 76.4783 15.226C76.4783 14.542 76.2803 13.972 75.8843 13.516C75.5003 13.06 74.9723 12.832 74.3003 12.832C72.8723 12.832 72.1583 13.516 72.1583 14.884C72.1583 15.568 72.3443 16.132 72.7163 16.576C73.1003 17.02 73.6523 17.242 74.3723 17.242ZM74.3183 18.25C73.9583 18.25 73.6283 18.214 73.3283 18.142C73.1483 18.358 72.9863 18.604 72.8423 18.88C72.7103 19.156 72.6443 19.366 72.6443 19.51C72.6443 19.81 73.0403 19.96 73.8323 19.96H75.9023C77.6783 19.96 78.5663 20.602 78.5663 21.886C78.5663 22.786 78.1283 23.512 77.2523 24.064C76.3883 24.628 75.3683 24.91 74.1923 24.91C73.0283 24.91 72.1583 24.706 71.5823 24.298C71.0183 23.89 70.7363 23.362 70.7363 22.714C70.7363 22.066 71.1323 21.43 71.9243 20.806C71.5643 20.542 71.3843 20.266 71.3843 19.978C71.3843 19.522 71.7983 18.832 72.6263 17.908C71.4743 17.392 70.8983 16.438 70.8983 15.046C70.8983 14.134 71.2223 13.372 71.8703 12.76C72.5183 12.136 73.3103 11.824 74.2463 11.824C75.1943 11.824 75.9683 12.058 76.5683 12.526C77.0723 11.854 77.6123 11.518 78.1883 11.518C78.4283 11.518 78.6323 11.572 78.8003 11.68C78.9803 11.788 79.0703 11.938 79.0703 12.13C79.0703 12.31 79.0223 12.526 78.9263 12.778C78.8303 12.754 78.6203 12.742 78.2963 12.742C77.9723 12.742 77.5883 12.862 77.1443 13.102C77.5403 13.654 77.7383 14.302 77.7383 15.046C77.7383 16.03 77.4023 16.81 76.7303 17.386C76.0583 17.962 75.2543 18.25 74.3183 18.25Z" fill="white"/>
<path d="M80.6107 19.492L80.6467 14.344V12.256C80.6467 9.424 80.5987 7.69 80.5027 7.054C80.6947 7.018 80.9047 7 81.1327 7C81.6847 7 81.9607 7.228 81.9607 7.684C81.9607 7.732 81.9547 8.05 81.9427 8.638C81.8707 10.822 81.8347 12.586 81.8347 13.93V16.738C81.8347 18.334 81.9487 19.516 82.1767 20.284C81.9607 20.38 81.7087 20.428 81.4207 20.428C81.1327 20.428 80.9227 20.356 80.7907 20.212C80.6707 20.068 80.6107 19.828 80.6107 19.492Z" fill="white"/>
<path d="M88.0787 11.824C88.9187 11.824 89.5967 12.064 90.1127 12.544C90.6407 13.012 90.9047 13.522 90.9047 14.074C90.9047 14.626 90.8207 15.058 90.6527 15.37C90.4847 15.682 90.2627 15.928 89.9867 16.108C89.7227 16.288 89.3387 16.426 88.8347 16.522C88.0667 16.666 86.9147 16.738 85.3787 16.738C85.4747 17.602 85.7327 18.286 86.1527 18.79C86.5847 19.294 87.2207 19.546 88.0607 19.546C88.9007 19.546 89.4947 19.234 89.8427 18.61C90.3227 18.802 90.5627 19.066 90.5627 19.402C90.5627 19.738 90.2867 20.014 89.7347 20.23C89.1947 20.446 88.5887 20.554 87.9167 20.554C86.7887 20.554 85.8647 20.2 85.1447 19.492C84.4247 18.772 84.0647 17.698 84.0647 16.27C84.0647 14.83 84.4607 13.732 85.2527 12.976C86.0567 12.208 86.9987 11.824 88.0787 11.824ZM88.0067 12.814C87.2867 12.814 86.6687 13.06 86.1527 13.552C85.6487 14.044 85.3847 14.806 85.3607 15.838C87.0767 15.838 88.2167 15.712 88.7807 15.46C89.0207 15.352 89.2247 15.196 89.3927 14.992C89.5727 14.788 89.6627 14.518 89.6627 14.182C89.6627 13.834 89.5007 13.522 89.1767 13.246C88.8647 12.958 88.4747 12.814 88.0067 12.814Z" fill="white"/>
</svg>
